<svg width="19" height="12" viewBox="0 0 19 12" fill="none" xmlns="http://www.w3.org/2000/svg">
<path d="M12.7742 5.18183C14.1324 5.18183 15.2206 4.08546 15.2206 2.72728C15.2206 1.3691 14.1324 0.272736 12.7742 0.272736C11.416 0.272736 10.3196 1.3691 10.3196 2.72728C10.3196 4.08546 11.416 5.18183 12.7742 5.18183ZM6.22874 5.18183C7.58692 5.18183 8.6751 4.08546 8.6751 2.72728C8.6751 1.3691 7.58692 0.272736 6.22874 0.272736C4.87056 0.272736 3.77419 1.3691 3.77419 2.72728C3.77419 4.08546 4.87056 5.18183 6.22874 5.18183ZM6.22874 6.81819C4.32237 6.81819 0.501465 7.77546 0.501465 9.68183V11.7273H11.956V9.68183C11.956 7.77546 8.1351 6.81819 6.22874 6.81819ZM12.7742 6.81819C12.5369 6.81819 12.2669 6.83455 11.9806 6.8591C12.9296 7.54637 13.5924 8.47092 13.5924 9.68183V11.7273H18.5015V9.68183C18.5015 7.77546 14.6806 6.81819 12.7742 6.81819Z" fill="#B1B1B4"/>
</svg>
