<svg width="28" height="32" viewBox="0 0 28 32" fill="none" xmlns="http://www.w3.org/2000/svg">
<path d="M14 0.5C6.26889 0.5 0 6.76889 0 14.5C0 20.9867 4.41778 26.4311 10.4067 28.0178L14 31.6111L17.5933 28.0178C23.5822 26.4311 28 20.9867 28 14.5C28 6.76889 21.7311 0.5 14 0.5ZM14 3.61111C16.5822 3.61111 18.6667 5.69556 18.6667 8.27778C18.6667 10.86 16.5822 12.9444 14 12.9444C11.4178 12.9444 9.33333 10.86 9.33333 8.27778C9.33333 5.69556 11.4178 3.61111 14 3.61111ZM14 25.8556C10.1111 25.8556 6.67333 23.8644 4.66667 20.8467C4.71333 17.7511 10.8889 16.0556 14 16.0556C17.0956 16.0556 23.2867 17.7511 23.3333 20.8467C21.3267 23.8644 17.8889 25.8556 14 25.8556Z" fill="white"/>
</svg>
