<svg width="170" height="41" viewBox="0 0 170 41" fill="none" xmlns="http://www.w3.org/2000/svg">
<path d="M60.26 33.324C55.484 33.324 53.096 32.484 53.096 30.804V10.968H65.876V12.552H54.788V21.12H64.832V22.704H54.788V31.272C56.54 31.608 58.4 31.776 60.368 31.776C62.336 31.776 64.184 31.596 65.912 31.236L66.308 32.748C64.604 33.132 62.588 33.324 60.26 33.324ZM75.8362 33C73.7482 28.128 71.7442 22.56 69.8242 16.296L71.4802 16.116C73.3042 22.332 75.0562 27.444 76.7362 31.452H77.1682C78.7762 27.588 80.5402 22.476 82.4602 16.116L84.0802 16.296C82.2562 22.104 80.2402 27.672 78.0322 33H75.8362ZM94.5472 33.324C89.8432 33.324 87.4912 30.444 87.4912 24.684C87.4912 21.948 88.0672 19.812 89.2192 18.276C90.3952 16.716 92.1472 15.936 94.4752 15.936C96.2992 15.936 97.7392 16.5 98.7952 17.628C99.8512 18.756 100.379 20.328 100.379 22.344C100.379 22.584 100.355 23.016 100.307 23.64L98.7232 25.296L89.0752 25.26C89.1232 27.468 89.5912 29.124 90.4792 30.228C91.3672 31.332 92.7352 31.884 94.5832 31.884C95.6392 31.884 96.5272 31.788 97.2472 31.596C97.9912 31.38 98.7352 31.056 99.4792 30.624L100.019 31.92C99.2032 32.376 98.3872 32.724 97.5712 32.964C96.7552 33.204 95.7472 33.324 94.5472 33.324ZM98.7232 23.856C98.8432 23.424 98.9032 22.86 98.9032 22.164C98.9032 20.7 98.5072 19.548 97.7152 18.708C96.9472 17.844 95.8192 17.412 94.3312 17.412C92.4832 17.412 91.1752 17.964 90.4072 19.068C89.6392 20.148 89.1832 21.804 89.0392 24.036L98.7232 23.856ZM105.161 16.224H106.493L106.601 18.708H106.853C108.845 16.86 111.017 15.936 113.369 15.936C114.761 15.936 115.805 16.2 116.501 16.728C117.221 17.232 117.581 18.06 117.581 19.212V33H115.961V17.88C115.049 17.568 114.077 17.412 113.045 17.412C111.869 17.412 110.717 17.652 109.589 18.132C108.485 18.612 107.549 19.248 106.781 20.04V33H105.161V16.224ZM128.912 33.18C128.12 33.18 127.4 33.096 126.752 32.928C125.288 32.184 124.556 31.14 124.556 29.796V17.664H121.676L121.892 16.224H124.556V11.58H126.14V16.224H131.684L131.504 17.664H126.14V29.364C126.14 29.844 126.164 30.216 126.212 30.48C126.26 30.744 126.344 31.044 126.464 31.38C127.208 31.596 127.94 31.704 128.66 31.704C129.14 31.704 129.644 31.656 130.172 31.56C130.7 31.44 131.156 31.284 131.54 31.092L132.008 32.46C131.648 32.652 131.168 32.82 130.568 32.964C129.992 33.108 129.44 33.18 128.912 33.18ZM136.344 9.852H138V13.056H136.344V9.852ZM136.38 16.26H137.964V33H136.38V16.26ZM144.8 17.664H142.424L142.64 16.224H144.8V12.984C144.8 12.12 145.04 11.364 145.52 10.716C146.024 10.044 146.624 9.516 147.32 9.132C148.016 8.964 148.712 8.88 149.408 8.88C150.296 8.88 151.196 9.048 152.108 9.384L151.64 10.752C151.232 10.608 150.848 10.512 150.488 10.464C150.152 10.416 149.72 10.392 149.192 10.392C148.328 10.392 147.524 10.5 146.78 10.716C146.516 11.46 146.384 12.276 146.384 13.164V16.224H150.272L150.092 17.664H146.384V33H144.8V17.664ZM157.556 39.588C156.452 39.588 155.516 39.408 154.748 39.048V38.256C154.748 37.656 154.844 36.996 155.036 36.276H156.224V38.04C156.704 38.136 157.292 38.184 157.988 38.184C158.612 38.184 159.188 38.112 159.716 37.968C160.412 36.432 161.144 34.512 161.912 32.208H159.464C158.288 29.304 157.28 26.64 156.44 24.216C155.624 21.792 154.808 19.14 153.992 16.26L155.612 16.08C157.172 21.768 158.768 26.652 160.4 30.732H162.452C164.084 25.692 165.464 20.808 166.592 16.08L168.212 16.26C167.324 20.004 166.292 23.7 165.116 27.348C163.964 30.996 162.788 34.272 161.588 37.176C160.892 38.784 159.548 39.588 157.556 39.588Z" fill="#3C3C3C"/>
<rect width="26.6667" height="26.6667" rx="10.3333" fill="#214057"/>
<rect x="13.3334" y="13.3333" width="26.6667" height="26.6667" rx="10.3333" fill="#6BB0BF"/>
<rect y="40" width="26.6667" height="26.6667" rx="3.33333" transform="rotate(-90 0 40)" fill="#6BB0BF"/>
<path d="M13.3334 26.6667L13.3334 3.33334C13.3334 1.49239 14.8258 3.74946e-06 16.6667 3.66899e-06L36.6667 2.79476e-06C38.5077 2.71429e-06 40 1.49239 40 3.33334L40 23.3333C40 25.1743 38.5077 26.6667 36.6667 26.6667L13.3334 26.6667Z" fill="#F2B680"/>
<path fill-rule="evenodd" clip-rule="evenodd" d="M32 20V8H20C13.3726 8 8 13.3726 8 20V32L20 32C26.6274 32 32 26.6274 32 20ZM26.6667 19.5699V13.3333L20.4301 13.3333C16.5107 13.3333 13.3333 16.5107 13.3333 20.4301L13.3333 26.6667H19.5699C23.4893 26.6667 26.6667 23.4893 26.6667 19.5699Z" fill="white"/>
<path d="M26.6667 13.3333V19.5699C26.6667 23.4893 23.4894 26.6667 19.5699 26.6667H13.3334L13.3334 20.4301C13.3334 16.5107 16.5107 13.3333 20.4301 13.3333L26.6667 13.3333Z" fill="#D7D7D9"/>
</svg>
